HIERARCHY
ROOT Model_Hips
{
	OFFSET 0.000000 96.915077 0.000000
	CHANNELS 6 Xposition Yposition Zposition Xrotation Yrotation Zrotation
	JOINT Model_Spine
	{
		OFFSET 0.000000 11.137703 -1.289900
		CHANNELS 3 Xrotation Yrotation Zrotation
		JOINT Model_Spine1
		{
			OFFSET 0.000000 12.993942 -1.504922
			CHANNELS 3 Xrotation Yrotation Zrotation
			JOINT Model_Spine2
			{
				OFFSET 0.000000 14.850220 -1.719911
				CHANNELS 3 Xrotation Yrotation Zrotation
				JOINT Model_Neck
				{
					OFFSET 0.000000 16.706543 -1.934903
					CHANNELS 3 Xrotation Yrotation Zrotation
					JOINT Model_Head
					{
						OFFSET 0.000000 10.471298 2.002100
						CHANNELS 3 Xrotation Yrotation Zrotation
						JOINT Model_HeadTop_End
						{
							OFFSET 0.000000 20.842606 3.985100
							CHANNELS 3 Xrotation Yrotation Zrotation
							End Site
							{
								OFFSET 0.000000 21.220154 0.000000
							}
						}
					}
				}
				JOINT Model_LeftShoulder
				{
					OFFSET 7.008500 14.768600 -1.919946
					CHANNELS 3 Xrotation Yrotation Zrotation
					JOINT Model_LeftArm
					{
						OFFSET 14.126271 -3.718048 0.029937
						CHANNELS 3 Xrotation Yrotation Zrotation
						JOINT Model_LeftForeArm
						{
							OFFSET 28.282801 0.000000 0.000000
							CHANNELS 3 Xrotation Yrotation Zrotation
							JOINT Model_LeftHand
							{
								OFFSET 26.204689 0.000000 0.000000
								CHANNELS 3 Xrotation Yrotation Zrotation
								End Site
								{
									OFFSET 26.204704 0.000000 0.000000
								}
							}
						}
					}
				}
				JOINT Model_RightShoulder
				{
					OFFSET -7.008500 14.768555 -1.949840
					CHANNELS 3 Xrotation Yrotation Zrotation
					JOINT Model_RightArm
					{
						OFFSET -14.126281 -3.718018 -0.029932
						CHANNELS 3 Xrotation Yrotation Zrotation
						JOINT Model_RightForeArm
						{
							OFFSET -28.283798 0.000000 -0.000001
							CHANNELS 3 Xrotation Yrotation Zrotation
							JOINT Model_RightHand
							{
								OFFSET -26.204193 0.000000 -0.000001
								CHANNELS 3 Xrotation Yrotation Zrotation
								End Site
								{
									OFFSET -26.204208 0.000000 -0.000001
								}
							}
						}
					}
				}
			}
		}
	}
	JOINT Model_LeftUpLeg
	{
		OFFSET 8.327700 -6.193199 -0.402800
		CHANNELS 3 Xrotation Yrotation Zrotation
		JOINT Model_LeftLeg
		{
			OFFSET 0.735802 -42.108742 -0.610721
			CHANNELS 3 Xrotation Yrotation Zrotation
			JOINT Model_LeftFoot
			{
				OFFSET -0.735806 -36.833748 -0.172876
				CHANNELS 3 Xrotation Yrotation Zrotation
				JOINT Model_LeftToeBase
				{
					OFFSET -0.565857 -11.977769 16.297714
					CHANNELS 3 Xrotation Yrotation Zrotation
					JOINT Model_LeftToe_End
					{
						OFFSET -0.111712 -0.312793 7.857784
						CHANNELS 3 Xrotation Yrotation Zrotation
						End Site
						{
							OFFSET -0.111712 -0.312793 7.857784
						}
					}
				}
			}
		}
	}
	JOINT Model_RightUpLeg
	{
		OFFSET -8.327700 -6.193199 -0.516500
		CHANNELS 3 Xrotation Yrotation Zrotation
		JOINT Model_RightLeg
		{
			OFFSET -0.735785 -42.108738 -0.434061
			CHANNELS 3 Xrotation Yrotation Zrotation
			JOINT Model_RightFoot
			{
				OFFSET 0.735776 -36.833748 -0.021630
				CHANNELS 3 Xrotation Yrotation Zrotation
				JOINT Model_RightToeBase
				{
					OFFSET 0.565817 -11.977745 15.903093
					CHANNELS 3 Xrotation Yrotation Zrotation
					JOINT Model_RightToe_End
					{
						OFFSET 0.111702 -0.312791 7.811342
						CHANNELS 3 Xrotation Yrotation Zrotation
						End Site
						{
							OFFSET 0.111702 -0.312791 7.811342
						}
					}
				}
			}
		}
	}
}
MOTION
Frames: 9
Frame Time: 0.016667
0.962721 66.552948 303.388855 108.400136 59.029220 -139.635090 19.978780 -0.571352 1.140374 7.631950 -0.184361 -0.380199 7.628273 -0.331063 -0.372382 12.482033 -8.416119 4.079128 12.482022 -8.416106 4.079129 -0.000000 -0.000001 -0.000001 0.663062 -6.823696 -7.151289 1.051522 -4.834294 -7.458684 -0.000049 -77.906859 -0.000003 -0.000003 0.000001 -0.000001 0.602249 11.977982 9.492482 -2.915116 11.059633 41.489824 0.000185 92.911132 -0.000203 -0.000000 0.000001 0.000000 -90.098016 17.636303 11.825058 95.266823 7.482613 -8.542043 -41.221612 -10.966541 25.705945 -7.483132 0.000019 0.000007 0.000000 -0.000004 0.000000 -35.988506 -9.102478 -19.713937 45.724220 5.871764 -8.177578 -19.274893 -8.435100 34.082716 -17.932571 -0.000001 0.000001 0.000000 -0.000000 -0.000001 
2.101280 67.615822 301.381927 112.968542 58.149731 -144.824135 19.478282 -0.076892 1.302714 7.464183 -0.019006 -0.275663 7.462890 -0.160933 -0.266291 12.663199 -9.198739 4.564715 12.663185 -9.198748 4.564731 -0.000001 -0.000003 -0.000001 0.664588 -6.782850 -7.067376 2.338904 -5.687523 -5.600165 0.000021 -75.929601 0.000023 -0.000001 -0.000001 0.000002 0.600768 11.975447 9.512334 2.707195 9.955197 42.259477 -0.000796 88.340704 0.000942 -0.000001 0.000000 0.000001 -84.772476 17.678893 9.224595 92.534966 7.372066 -8.610691 -41.712952 -11.504043 26.744092 -8.140469 0.000008 0.000006 0.000001 -0.000002 -0.000000 -33.241219 -8.079067 -18.016890 45.401879 2.920891 -10.114140 -12.299707 -5.980785 34.784548 -19.543680 -0.000003 0.000004 0.000000 -0.000000 -0.000001 
3.125763 68.565643 299.296753 117.520617 56.931949 -149.858380 19.000707 0.204539 1.504783 7.263721 0.088136 -0.098235 7.263974 -0.042387 -0.088616 12.716048 -9.766045 5.081069 12.716082 -9.766040 5.081040 0.000001 0.000003 0.000001 0.665454 -6.685794 -6.958847 2.143655 -6.734371 -3.599456 -0.000019 -74.547622 0.000010 0.000001 0.000001 -0.000001 0.595312 12.058976 9.585948 7.936764 9.349461 43.389316 0.000086 80.879398 -0.000050 0.000001 -0.000000 0.000000 -79.457107 17.633993 6.542447 89.715634 7.127170 -8.564605 -41.982905 -11.963163 27.712516 -8.696247 -0.000009 -0.000009 0.000000 -0.000001 0.000001 -31.546578 -4.694107 -16.501980 47.621165 1.037192 -10.492121 -4.533667 -3.092062 34.633782 -25.263972 -0.546033 4.968473 0.000001 -0.000001 0.000001 
3.985371 69.427017 297.170349 122.018078 55.260581 -154.704044 18.584820 0.229471 1.782274 7.046814 0.105705 0.110992 7.047370 -0.012137 0.119529 12.624409 -10.122608 5.632308 12.624379 -10.122607 5.632313 0.000002 -0.000001 0.000000 0.665626 -6.487871 -6.774372 0.446214 -8.058441 -1.424979 0.000000 -73.859118 0.000012 0.000001 0.000003 -0.000001 0.584411 12.265614 9.728361 12.636922 9.564773 44.582021 -0.000011 71.288385 0.000026 0.000000 0.000000 0.000000 -74.225476 17.505698 3.783804 86.830624 6.574995 -8.406717 -41.835578 -12.322550 28.714399 -9.147398 0.000003 0.000003 0.000001 0.000002 0.000000 -31.505989 -1.097043 -14.818579 52.406771 2.743613 -10.137255 2.565022 -0.818919 30.091208 -31.339398 -3.971853 13.181978 -0.000001 0.000000 0.000000 
4.667002 70.186600 295.119019 126.414739 53.005502 -159.226968 18.282330 -0.050968 2.076715 6.857602 0.024310 0.309252 6.857352 -0.085123 0.316094 12.381177 -10.305792 6.225125 12.381191 -10.305788 6.225107 0.000001 0.000000 -0.000000 0.664634 -6.161086 -6.465897 -2.487489 -10.055804 1.045392 0.000036 -73.628647 0.000032 -0.000000 -0.000001 0.000000 0.567284 12.601373 9.939435 16.957994 10.598561 45.791692 -0.000024 60.691627 0.000043 -0.000000 -0.000000 -0.000000 -69.147046 17.327529 0.933553 83.987810 5.559036 -8.162065 -41.208379 -12.590781 29.842633 -9.510104 0.000005 -0.000015 -0.000000 0.000000 -0.000000 -32.859139 1.246205 -13.177748 59.033653 7.851512 -9.810305 7.216030 0.323835 25.079046 -27.759139 -14.624603 25.720933 0.000002 0.000000 0.000001 
5.189062 70.914543 293.117218 130.553452 50.141532 -163.343605 18.128857 -0.552039 2.440326 6.739514 -0.141212 0.475185 6.737557 -0.249928 0.480405 11.986173 -10.368639 6.854809 11.986173 -10.368626 6.854804 -0.000002 0.000000 -0.000000 0.660714 -5.701652 -6.007714 -6.175484 -13.194648 3.832500 0.000000 -73.354490 -0.000017 -0.000002 0.000002 -0.000001 0.545189 13.015244 10.190260 21.105273 12.187421 47.158635 -0.000033 50.390694 0.000030 0.000002 -0.000002 -0.000001 -64.089161 17.055711 -1.933171 81.016822 3.950596 -7.865618 -40.098439 -12.798679 31.208415 -10.229604 -0.000015 -0.000001 0.000001 0.000002 -0.000000 -35.889796 2.634642 -12.220837 68.970861 9.039301 -9.848810 6.387481 1.911327 21.679287 -7.402272 -5.157661 15.964597 0.000001 -0.000000 0.000000 
5.576025 71.643448 291.158325 134.240702 46.739142 -166.937473 18.121378 -1.183385 2.907594 6.704443 -0.361808 0.614177 6.699796 -0.478223 0.618077 11.443812 -10.360446 7.499415 11.443797 -10.360437 7.499368 0.000001 0.000000 -0.000000 0.651039 -5.125666 -5.403609 -10.087253 -17.681207 6.772675 -0.000009 -72.538228 0.000001 0.000002 0.000000 -0.000000 0.523625 13.393652 10.416627 25.269270 13.824252 48.825467 0.000000 41.865040 0.000029 0.000000 -0.000000 -0.000001 -59.004577 16.681060 -4.680789 77.793724 1.747933 -7.545870 -38.575785 -12.960464 32.841493 -11.437805 0.000001 -0.000006 0.000000 -0.000001 0.000000 -39.687303 3.555962 -11.662406 79.065375 9.419951 -9.170561 4.164051 2.731459 18.513277 11.183784 -0.020150 0.815155 0.000000 -0.000000 -0.000002 
5.854615 72.367386 289.243195 137.311418 42.960367 -169.931336 18.210889 -1.879181 3.498845 6.722286 -0.610047 0.747797 6.713796 -0.741122 0.750640 10.763617 -10.313277 8.123403 10.763582 -10.313290 8.123419 -0.000000 0.000000 0.000001 0.632205 -4.453733 -4.681578 -13.792477 -23.280707 9.615229 -0.000052 -70.957660 -0.000047 0.000001 0.000001 -0.000003 0.511513 13.597020 10.536999 29.764178 14.811733 50.752359 -0.000001 36.783601 0.000009 -0.000001 -0.000003 -0.000000 -53.948317 16.253996 -7.147842 74.293969 -0.931258 -7.218178 -36.757448 -13.068176 34.682816 -12.613529 0.000011 0.000009 -0.000000 0.000002 -0.000001 -44.127844 4.702505 -11.536740 88.641280 9.764390 -7.385001 1.432496 1.673408 15.891577 10.672065 -0.000000 -0.000006 0.000000 0.000000 -0.000001 
6.053420 73.073936 287.337250 139.694403 39.021970 -172.361367 18.324431 -2.603983 4.238932 6.737860 -0.871444 0.897214 6.724267 -1.021267 0.899337 9.963790 -10.238440 8.685646 9.963770 -10.238447 8.685648 -0.000002 0.000001 0.000001 0.600974 -3.699567 -3.882761 -16.988540 -29.396810 12.196131 -0.000024 -68.770176 -0.000029 -0.000001 0.000004 -0.000001 0.516578 13.522971 10.486348 34.946328 14.609025 52.723480 -0.000018 36.283628 0.000029 -0.000000 -0.000003 -0.000001 -48.974727 15.846375 -9.202996 70.520617 -3.901556 -6.879060 -34.758133 -13.097143 36.616292 -13.770653 0.000008 0.000000 -0.000000 -0.000001 -0.000000 -49.407034 5.406336 -11.605080 97.313366 10.160115 -5.790494 -1.463804 -0.698683 13.890779 7.773931 -0.000003 0.000001 0.000001 -0.000001 -0.000001 
